<svg width="256" height="257" viewBox="0 0 256 257" xmlns="http://www.w3.org/2000/svg" preserveAspectRatio="xMidYMid"><defs><linearGradient x1="49.998%" y1=".706%" x2="49.998%" y2="96.99%" id="a"><stop stop-color="#86BBE5" offset="0%"/><stop stop-color="#1072BA" offset="100%"/></linearGradient></defs><path d="M127.789.035s75.321-3.38 115.253 72.328h-121.662s-22.959-.739-42.573 27.114c-5.634 11.691-11.691 23.734-4.895 47.467-9.789-16.585-51.975-90.04-51.975-90.04s29.755-53.876 105.851-56.869z" fill="#EF3F36"/><path d="M239.133 192.229s-34.755 66.94-120.253 63.63c10.564-18.276 60.848-105.358 60.848-105.358s12.149-19.508-2.183-50.425c-7.289-10.74-14.719-21.973-38.664-27.959 19.262-.176 103.949 0 103.949 0s31.727 52.714-3.697 120.112z" fill="#FCD900"/><path d="M16.973 192.757s-40.601-63.56 5.035-135.958c10.529 18.276 60.813 105.358 60.813 105.358s10.846 20.283 44.756 23.311c12.923-.951 26.375-1.761 43.559-19.473-9.472 16.761-51.975 90.005-51.975 90.005s-61.553 1.127-102.189-63.243z" fill="#61BC5B"/><path d="M118.845 256.493l17.114-71.412s18.804-1.479 34.579-18.769c-9.789 17.219-51.693 90.181-51.693 90.181z" fill="#5AB055"/><path d="M70.462 129.056c0-31.481 25.53-57.01 57.01-57.01 31.481 0 57.01 25.53 57.01 57.01 0 31.481-25.53 57.01-57.01 57.01-31.481-.035-57.01-25.53-57.01-57.01z" fill="#fff"/><path d="M80.004 129.056c0-26.199 21.234-47.467 47.467-47.467 26.199 0 47.467 21.234 47.467 47.467 0 26.199-21.234 47.467-47.467 47.467-26.199 0-47.467-21.269-47.467-47.467z" fill="url(#a)"/><path d="M242.795 72.152l-70.462 20.67s-10.634-15.599-33.488-20.67c19.825-.106 103.949 0 103.949 0z" fill="#EACA05"/><path d="M72.539 144.339c-9.895-17.149-50.601-87.434-50.601-87.434l52.186 51.623s-5.352 11.022-3.345 26.797l1.761 9.015z" fill="#DF3A32"/></svg>
