<svg width="256" height="252" viewBox="0 0 256 252" xmlns="http://www.w3.org/2000/svg" preserveAspectRatio="xMidYMid"><path d="M256 131.593c0-20.238-5.232-39.251-14.408-55.772 39.11-88.514-41.907-75.549-46.417-74.667-17.164 3.359-33.044 8.751-47.691 15.586-2.16-.122-4.333-.188-6.523-.188-54.665 0-100.423 38.128-112.134 89.241 28.812-32.323 48.976-45.365 61.051-50.585-1.927 1.722-3.814 3.464-5.67 5.218-.618.583-1.213 1.175-1.822 1.762-1.224 1.177-2.445 2.356-3.638 3.545-.71.707-1.4 1.421-2.099 2.133-1.058 1.077-2.113 2.153-3.146 3.236-.734.769-1.449 1.541-2.17 2.311-.965 1.033-1.924 2.067-2.865 3.105-.731.806-1.45 1.613-2.168 2.421-.892 1.004-1.776 2.009-2.648 3.015-.723.835-1.44 1.67-2.148 2.506-.827.976-1.642 1.951-2.45 2.927-.714.864-1.426 1.726-2.125 2.588-.756.933-1.496 1.864-2.234 2.794-.716.902-1.431 1.802-2.13 2.703-.666.858-1.312 1.712-1.963 2.567-.735.966-1.475 1.932-2.191 2.893-.512.688-1.003 1.369-1.505 2.055-4.545 6.202-8.698 12.285-12.449 18.128l-.027.043c-.988 1.539-1.941 3.055-2.874 4.557l-.153.246c-.935 1.509-1.838 2.991-2.718 4.458l-.094.155c-2.366 3.949-4.561 7.756-6.537 11.338-10.361 18.777-15.405 31.895-15.623 32.674-32.718 116.97 69.396 67.575 83.645 60.201 15.343 7.58 32.616 11.846 50.888 11.846 50.022 0 92.581-31.93 108.422-76.519h-60.446c-8.944 15.11-26.163 25.345-45.945 25.345-28.984 0-52.479-21.96-52.479-49.05h164.54c.624-4.852.947-9.797.947-14.817zm-21.49-113.206c9.907 6.686 17.852 17.187 4.207 52.549-13.087-21.048-32.778-37.558-56.181-46.633 10.646-5.142 37.011-16.017 51.974-5.916zm-210.53 216.166c-8.069-8.275-9.495-28.429 8.31-65.155 8.986 25.835 26.917 47.483 50.093 61.221-11.526 6.344-42.126 20.628-58.403 3.934zm66.279-119.601c.92-26.329 23.834-47.41 51.987-47.41 28.152 0 51.068 21.081 51.987 47.41h-103.975z" fill="#1EBBEE"/></svg>
