<svg width="256" height="256" viewBox="0 0 256 256" xmlns="http://www.w3.org/2000/svg" preserveAspectRatio="xMidYMid"><defs><linearGradient x1="50.003%" y1="1.63%" x2="50.003%" y2="98.545%" id="a"><stop stop-color="#FF1B2D" offset="30%"/><stop stop-color="#FA1A2C" offset="43.81%"/><stop stop-color="#ED1528" offset="59.39%"/><stop stop-color="#D60E21" offset="75.81%"/><stop stop-color="#B70519" offset="92.72%"/><stop stop-color="#A70014" offset="100%"/></linearGradient><linearGradient x1="49.99%" y1=".853%" x2="49.99%" y2="99.519%" id="b"><stop stop-color="#9C0000" offset="0%"/><stop stop-color="#FF4B4B" offset="70%"/></linearGradient></defs><path d="M85.9 200.1c-14.2-16.7-23.3-41.4-23.9-69.1v-6c.6-27.7 9.8-52.4 23.9-69.1 18.4-23.8 45.4-34.5 75.9-34.5 18.8 0 36.5 1.3 51.5 11.3-22.5-20.3-52.2-32.6-84.8-32.7h-.5c-70.7 0-128 57.3-128 128 0 68.6 54 124.7 121.9 127.9 2 .1 4.1.1 6.1.1 32.8 0 62.7-12.3 85.3-32.6-15 10-31.7 10.4-50.5 10.4-30.4.1-58.6-9.8-76.9-33.7z" fill="url(#a)"/><path d="M85.9 55.9c11.7-13.9 26.9-22.2 43.5-22.2 37.3 0 67.5 42.2 67.5 94.4s-30.2 94.4-67.5 94.4c-16.6 0-31.7-8.4-43.5-22.2 18.4 23.8 45.7 39 76.1 39 18.7 0 36.3-5.7 51.3-15.7 26.2-23.6 42.7-57.7 42.7-95.6 0-37.9-16.5-72-42.7-95.4-15-10-32.5-15.7-51.3-15.7-30.5 0-57.8 15.1-76.1 39z" fill="url(#b)"/></svg>
