<svg width="256" height="256" viewBox="0 0 256 256" xmlns="http://www.w3.org/2000/svg" preserveAspectRatio="xMidYMid"><defs><linearGradient x1="50%" y1="100%" x2="50%" y2="0%" id="a"><stop stop-color="#DBDBDA" offset="25%"/><stop stop-color="#fff" offset="100%"/></linearGradient><filter x="-50%" y="-50%" width="200%" height="200%" filterUnits="objectBoundingBox" id="b"><feOffset dy="2" in="SourceAlpha" result="shadowOffsetOuter1"/><feGaussianBlur stdDeviation="2" in="shadowOffsetOuter1" result="shadowBlurOuter1"/><feColorMatrix values="0 0 0 0 0 0 0 0 0 0 0 0 0 0 0 0 0 0 0.266007133 0" in="shadowBlurOuter1" result="shadowMatrixOuter1"/><feMerge><feMergeNode in="shadowMatrixOuter1"/><feMergeNode in="SourceGraphic"/></feMerge></filter><radialGradient cx="57.025%" cy="39.017%" fx="57.025%" fy="39.017%" r="61.032%" id="c"><stop stop-color="#2ABCE1" offset="0%"/><stop stop-color="#2ABBE1" offset="11.363%"/><stop stop-color="#3375F8" offset="100%"/></radialGradient><linearGradient x1="49.05%" y1="35.703%" x2="25.713%" y2="77.572%" id="d"><stop stop-opacity="0" offset="0%"/><stop offset="100%"/></linearGradient><filter x="-50%" y="-50%" width="200%" height="200%" filterUnits="objectBoundingBox" id="e"><feOffset dy="1" in="SourceAlpha" result="shadowOffsetOuter1"/><feGaussianBlur stdDeviation="2" in="shadowOffsetOuter1" result="shadowBlurOuter1"/><feColorMatrix values="0 0 0 0 0 0 0 0 0 0 0 0 0 0 0 0 0 0 13 0" in="shadowBlurOuter1" result="shadowMatrixOuter1"/><feMerge><feMergeNode in="shadowMatrixOuter1"/><feMergeNode in="SourceGraphic"/></feMerge></filter></defs><g transform="translate(4 2)"><circle fill="url(#a)" filter="url(#b)" cx="124" cy="124" r="124"/><circle fill="url(#c)" cx="124" cy="124" r="114.7"/><g transform="translate(9.688 8.719)"><path d="M114.506 28.481c-.775 0-1.453-.581-1.453-1.356v-20.247c0-.775.678-1.356 1.453-1.356s1.453.581 1.453 1.356v20.247c-.097.775-.678 1.356-1.453 1.356z" fill="#F3F3F3"/><path d="M114.506 28.578c-.872 0-1.55-.678-1.55-1.453v-20.247c0-.775.678-1.453 1.55-1.453s1.55.678 1.55 1.453v20.247c0 .775-.775 1.453-1.55 1.453zm0-22.959c-.678 0-1.356.581-1.356 1.259v20.247c0 .678.581 1.259 1.356 1.259.678 0 1.356-.581 1.356-1.259v-20.247c-.097-.678-.678-1.259-1.356-1.259z" fill="#fff"/><path d="M124.194 17.631c-.775-.097-1.356-.678-1.356-1.453l.678-9.009c.097-.775.775-1.356 1.55-1.259.775.097 1.356.678 1.356 1.453l-.678 9.009c-.097.775-.775 1.356-1.55 1.259z" fill="#F3F3F3"/><path d="M124.194 17.728c-.872-.097-1.453-.775-1.453-1.55l.678-9.009c.097-.775.775-1.453 1.647-1.356.872.097 1.453.775 1.453 1.55l-.678 9.009c-.097.872-.775 1.453-1.647 1.356zm.872-11.722c-.678 0-1.356.484-1.356 1.163l-.678 9.009c0 .678.484 1.259 1.259 1.356.678 0 1.356-.484 1.356-1.163l.678-9.009c0-.678-.581-1.259-1.259-1.356z" fill="#fff"/><path d="M131.459 30.225c-.775-.194-1.259-.872-1.162-1.647l3.972-19.859c.194-.775.872-1.259 1.647-1.066.775.194 1.259.872 1.162 1.647l-3.972 19.859c-.097.678-.872 1.162-1.647 1.066z" fill="#F3F3F3"/><path d="M131.459 30.322c-.872-.194-1.356-.969-1.259-1.744l3.972-19.859c.194-.775.969-1.356 1.841-1.162.872.194 1.356.969 1.259 1.744l-3.972 19.859c-.194.775-.969 1.259-1.841 1.162zm4.553-22.572c-.678-.097-1.356.291-1.55.969l-3.972 19.859c-.097.678.291 1.356 1.066 1.55.678.097 1.356-.291 1.55-.969l3.972-19.859c.097-.775-.387-1.356-1.066-1.55z" fill="#fff"/><path d="M143.084 21.506c-.775-.194-1.259-.969-1.066-1.744l2.422-8.719c.194-.775.969-1.162 1.744-.969.775.194 1.259.969 1.066 1.744l-2.422 8.719c-.194.775-.969 1.162-1.744.969z" fill="#F3F3F3"/><path d="M143.084 21.603c-.775-.194-1.356-1.066-1.066-1.841l2.422-8.719c.194-.775 1.066-1.259 1.841-1.066.775.194 1.356 1.066 1.066 1.841l-2.422 8.719c-.194.775-.969 1.259-1.841 1.066zm3.197-11.334c-.678-.194-1.453.194-1.647.872l-2.422 8.719c-.194.678.194 1.356.969 1.55.678.194 1.453-.194 1.647-.872l2.422-8.719c.097-.678-.291-1.356-.969-1.55z" fill="#fff"/><path d="M147.831 35.166c-.775-.291-1.066-1.163-.775-1.841l7.75-18.697c.291-.678 1.162-1.066 1.841-.678.775.291 1.066 1.163.775 1.841l-7.75 18.697c-.291.678-1.162 1.066-1.841.678z" fill="#F3F3F3"/><path d="M147.831 35.263c-.775-.291-1.163-1.163-.872-1.938l7.75-18.697c.291-.775 1.162-1.066 2.034-.775.775.291 1.162 1.162.872 1.938l-7.75 18.697c-.387.775-1.259 1.163-2.034.775zm8.816-21.216c-.678-.291-1.453 0-1.744.678l-7.75 18.697c-.291.678.097 1.356.775 1.647.678.291 1.453 0 1.744-.678l7.75-18.697c.194-.581-.097-1.356-.775-1.647z" fill="#fff"/><path d="M160.909 28.966c-.678-.387-.969-1.162-.678-1.841l4.069-8.041c.387-.678 1.162-.969 1.938-.581.678.387.969 1.162.678 1.841l-4.069 8.041c-.388.678-1.163.969-1.938.581z" fill="#F3F3F3"/><path d="M160.909 29.063c-.775-.387-1.066-1.259-.678-2.034l4.069-8.041c.387-.775 1.259-1.066 2.034-.678.775.387 1.066 1.259.678 2.034l-4.069 8.041c-.387.775-1.259 1.066-2.034.678zm5.328-10.559c-.678-.291-1.453-.097-1.744.581l-4.069 8.041c-.291.581 0 1.356.581 1.744.678.291 1.453.097 1.744-.581l4.069-8.041c.291-.581 0-1.356-.581-1.744z" fill="#fff"/><path d="M162.847 43.303c-.678-.484-.872-1.356-.388-1.938l11.238-16.759c.387-.678 1.259-.775 1.938-.387.678.484.872 1.356.387 1.938l-11.237 16.759c-.388.678-1.259.872-1.938.388z" fill="#F3F3F3"/><path d="M162.847 43.4c-.678-.484-.872-1.453-.484-2.131l11.237-16.759c.484-.678 1.356-.872 2.131-.387.678.484.872 1.453.484 2.131l-11.237 16.759c-.484.678-1.453.872-2.131.387zm12.787-19.084c-.581-.387-1.453-.291-1.841.291l-11.237 16.759c-.388.581-.194 1.356.387 1.744.581.388 1.453.291 1.841-.291l11.237-16.663c.388-.581.194-1.453-.387-1.841z" fill="#fff"/><path d="M176.991 39.719c-.581-.484-.775-1.356-.291-1.938l5.619-7.072c.484-.581 1.356-.678 1.938-.194.581.484.775 1.356.291 1.938l-5.619 7.072c-.484.581-1.356.678-1.938.194z" fill="#F3F3F3"/><path d="M176.894 39.816c-.678-.484-.775-1.453-.291-2.131l5.619-7.072c.484-.678 1.453-.775 2.131-.194.678.484.775 1.453.291 2.131l-5.619 7.072c-.484.678-1.453.775-2.131.194zm7.266-9.203c-.581-.484-1.356-.387-1.841.194l-5.619 7.072c-.387.581-.291 1.356.291 1.841.581.484 1.356.388 1.841-.194l5.619-7.072c.388-.581.291-1.453-.291-1.841z" fill="#fff"/><path d="M176.022 54.25c-.581-.581-.581-1.453 0-1.938l14.338-14.241c.581-.581 1.453-.484 1.938 0 .484.484.581 1.453 0 1.938l-14.241 14.241c-.581.581-1.453.581-2.034 0z" fill="#F3F3F3"/><path d="M175.925 54.347c-.581-.581-.581-1.55 0-2.131l14.337-14.241c.581-.581 1.55-.581 2.131 0 .581.581.581 1.55 0 2.131l-14.338 14.241c-.581.581-1.55.581-2.131 0zm16.372-16.275c-.484-.484-1.356-.484-1.841 0l-14.338 14.241c-.484.484-.484 1.356 0 1.841.484.484 1.356.484 1.841 0l14.338-14.241c.484-.484.484-1.259 0-1.841z" fill="#fff"/><path d="M190.553 53.475c-.484-.581-.484-1.453.097-1.938l6.878-5.813c.581-.484 1.453-.388 1.938.194.484.581.484 1.453-.097 1.938l-6.878 5.813c-.581.484-1.453.387-1.938-.194z" fill="#F3F3F3"/><path d="M190.456 53.572c-.581-.678-.484-1.647.097-2.131l6.878-5.813c.581-.581 1.55-.484 2.131.194.581.678.484 1.647-.097 2.131l-6.878 5.813c-.581.581-1.55.484-2.131-.194zm8.912-7.653c-.484-.581-1.259-.581-1.841-.194l-6.878 5.813c-.484.484-.581 1.259-.097 1.841.484.581 1.259.581 1.841.194l6.878-5.813c.581-.484.581-1.259.097-1.841z" fill="#fff"/><path d="M186.678 67.425c-.484-.678-.291-1.55.388-1.938l16.856-11.237c.678-.388 1.55-.194 1.938.388.484.678.291 1.55-.387 1.938l-16.856 11.237c-.581.388-1.453.194-1.938-.388z" fill="#F3F3F3"/><path d="M186.581 67.425c-.484-.678-.291-1.647.387-2.131l16.856-11.238c.678-.484 1.647-.291 2.131.484.484.678.291 1.647-.388 2.131l-16.856 11.237c-.678.484-1.647.291-2.131-.484zm19.181-12.691c-.387-.581-1.162-.775-1.744-.388l-16.856 11.237c-.581.388-.775 1.163-.291 1.841.388.581 1.163.775 1.744.388l16.856-11.237c.581-.484.678-1.259.291-1.841z" fill="#fff"/><path d="M201.113 69.459c-.388-.678-.194-1.55.484-1.938l7.847-4.456c.678-.387 1.55-.097 1.938.581.388.678.194 1.55-.484 1.937l-7.847 4.456c-.678.387-1.55.097-1.938-.581z" fill="#F3F3F3"/><path d="M201.016 69.556c-.387-.775-.194-1.647.484-2.034l7.847-4.456c.678-.387 1.647-.097 2.034.581.388.775.194 1.647-.484 2.034l-7.847 4.456c-.678.388-1.647.097-2.034-.581zm10.269-5.813c-.388-.678-1.163-.872-1.744-.484l-7.847 4.456c-.581.388-.775 1.162-.484 1.744.388.678 1.162.872 1.744.484l7.847-4.456c.581-.291.775-1.066.484-1.744z" fill="#fff"/><path d="M194.622 82.344c-.291-.775 0-1.55.775-1.841l18.697-7.75c.678-.291 1.55.097 1.841.775.291.775 0 1.55-.775 1.841l-18.697 7.75c-.678.291-1.55 0-1.841-.775z" fill="#F3F3F3"/><path d="M194.525 82.441c-.291-.775 0-1.647.775-2.034l18.697-7.75c.775-.291 1.647.097 1.938.872.291.775 0 1.647-.775 2.034l-18.697 7.75c-.775.291-1.647-.097-1.938-.872zm21.216-8.816c-.291-.678-1.066-.969-1.647-.775l-18.697 7.75c-.678.291-.969 1.066-.678 1.744.291.678 1.066.969 1.647.775l18.697-7.75c.678-.291.969-1.066.678-1.744z" fill="#fff"/><path d="M208.281 87.188c-.291-.775.097-1.55.872-1.841l8.525-2.809c.678-.291 1.55.194 1.744.872.291.775-.097 1.55-.872 1.841l-8.525 2.809c-.678.291-1.453-.097-1.744-.872z" fill="#F3F3F3"/><path d="M208.184 87.284c-.291-.775.097-1.647.969-1.938l8.525-2.809c.775-.291 1.647.194 1.938.969.291.775-.097 1.647-.969 1.938l-8.525 2.809c-.775.194-1.647-.194-1.938-.969zm11.238-3.681c-.194-.678-.969-1.066-1.647-.872l-8.525 2.809c-.678.194-.969.969-.775 1.647.194.678.969 1.066 1.647.872l8.525-2.809c.678-.291.969-.969.775-1.647z" fill="#fff"/><path d="M199.563 98.716c-.194-.775.291-1.55 1.066-1.647l19.859-3.875c.775-.194 1.453.388 1.647 1.163.194.775-.291 1.55-1.066 1.647l-19.859 3.875c-.775.097-1.55-.388-1.647-1.162z" fill="#F3F3F3"/><path d="M199.369 98.716c-.194-.872.387-1.647 1.162-1.841l19.859-3.875c.775-.194 1.55.388 1.744 1.259.194.872-.388 1.647-1.162 1.841l-19.859 3.875c-.775.194-1.55-.387-1.744-1.259zm22.572-4.359c-.097-.678-.775-1.163-1.453-1.066l-19.859 3.875c-.678.097-1.163.872-.969 1.55.097.678.775 1.162 1.453 1.066l19.859-3.875c.678-.194 1.162-.872.969-1.55z" fill="#fff"/><path d="M211.963 106.175c-.097-.775.387-1.453 1.162-1.55l8.912-1.066c.775-.097 1.453.484 1.55 1.259.097.775-.388 1.453-1.162 1.55l-8.913 1.066c-.678.097-1.453-.484-1.55-1.259z" fill="#F3F3F3"/><path d="M211.866 106.175c-.097-.872.484-1.647 1.259-1.744l8.912-1.066c.775-.097 1.55.484 1.647 1.356.097.872-.484 1.647-1.259 1.744l-8.913 1.066c-.775.097-1.55-.484-1.647-1.356zm11.722-1.356c-.097-.678-.775-1.259-1.453-1.162l-8.912 1.066c-.678.097-1.163.775-1.066 1.453.097.678.775 1.259 1.453 1.163l8.912-1.066c.678-.097 1.162-.775 1.066-1.453z" fill="#fff"/><path d="M201.113 115.572c0-.775.581-1.453 1.356-1.453h20.247c.775 0 1.356.678 1.356 1.453s-.581 1.453-1.356 1.453h-20.247c-.775 0-1.356-.678-1.356-1.453z" fill="#F3F3F3"/><path d="M201.016 115.572c0-.872.678-1.55 1.453-1.55h20.247c.775 0 1.453.678 1.453 1.55s-.678 1.55-1.453 1.55h-20.247c-.775 0-1.453-.678-1.453-1.55zm22.959.097c0-.678-.581-1.356-1.259-1.356h-20.247c-.678 0-1.259.581-1.259 1.356 0 .678.581 1.356 1.259 1.356h20.247c.678-.097 1.259-.678 1.259-1.356z" fill="#fff"/><path d="M211.866 125.356c.097-.775.678-1.356 1.453-1.356l9.009.678c.775.097 1.356.775 1.259 1.55-.097.775-.678 1.356-1.453 1.356l-9.009-.678c-.678-.097-1.259-.775-1.259-1.55z" fill="#F3F3F3"/><path d="M211.769 125.356c.097-.872.775-1.453 1.55-1.453l9.009.678c.775.097 1.453.775 1.356 1.647-.097.872-.775 1.453-1.55 1.453l-9.009-.678c-.775-.097-1.356-.872-1.356-1.647zm11.819.872c.097-.678-.484-1.356-1.162-1.356l-9.009-.678c-.678 0-1.259.484-1.356 1.259-.097.678.484 1.356 1.163 1.356l9.009.678c.678 0 1.259-.581 1.356-1.259z" fill="#fff"/><path d="M199.369 132.428c.194-.775.872-1.259 1.647-1.162l19.859 3.972c.775.194 1.259.872 1.066 1.647-.194.775-.872 1.259-1.647 1.162l-19.859-3.972c-.678-.097-1.162-.872-1.066-1.647z" fill="#F3F3F3"/><path d="M199.272 132.428c.194-.872.969-1.356 1.744-1.259l19.859 3.972c.775.194 1.356.969 1.162 1.841-.194.872-.969 1.356-1.744 1.259l-19.859-3.972c-.775-.194-1.259-.969-1.162-1.841zm22.572 4.553c.097-.678-.291-1.356-.969-1.55l-19.859-3.972c-.678-.097-1.356.291-1.55 1.066-.097.678.291 1.356.969 1.55l19.859 3.972c.775.097 1.356-.387 1.55-1.066z" fill="#fff"/><path d="M208.088 144.053c.194-.775.969-1.259 1.744-1.066l8.719 2.422c.775.194 1.162.969.969 1.744-.194.775-.969 1.259-1.744 1.066l-8.719-2.422c-.775-.194-1.162-.969-.969-1.744z" fill="#F3F3F3"/><path d="M207.991 144.053c.194-.775 1.066-1.356 1.841-1.066l8.719 2.422c.775.194 1.259 1.066 1.066 1.841-.194.775-1.066 1.356-1.841 1.066l-8.719-2.422c-.775-.194-1.259-.969-1.066-1.841zm11.334 3.197c.194-.678-.194-1.453-.872-1.647l-8.719-2.422c-.678-.194-1.356.194-1.55.969-.194.678.194 1.453.872 1.647l8.719 2.422c.678.097 1.356-.291 1.55-.969z" fill="#fff"/><path d="M194.428 148.703c.291-.775 1.162-1.066 1.841-.775l18.697 7.75c.678.291 1.066 1.162.775 1.841-.291.775-1.162 1.066-1.841.775l-18.697-7.75c-.775-.291-1.066-1.162-.775-1.841z" fill="#F3F3F3"/><path d="M194.331 148.606c.291-.775 1.162-1.162 1.938-.872l18.697 7.75c.775.291 1.066 1.162.775 2.034-.291.775-1.162 1.162-1.938.872l-18.697-7.75c-.775-.387-1.066-1.259-.775-2.034zm21.216 8.816c.291-.678 0-1.453-.678-1.744l-18.697-7.75c-.678-.291-1.356.097-1.647.775-.291.678 0 1.453.678 1.744l18.697 7.75c.678.194 1.453-.097 1.647-.775z" fill="#fff"/><path d="M200.725 161.781c.388-.678 1.162-.969 1.841-.678l8.041 4.069c.678.291.969 1.162.581 1.938-.387.678-1.162.969-1.841.678l-8.041-4.069c-.678-.387-.969-1.259-.581-1.938z" fill="#F3F3F3"/><path d="M200.628 161.684c.387-.775 1.259-1.066 2.034-.678l8.041 4.069c.775.388 1.066 1.259.678 2.034-.387.775-1.259 1.066-2.034.678l-8.041-4.069c-.775-.291-1.066-1.259-.678-2.034zm10.462 5.328c.291-.678.097-1.453-.581-1.744l-8.041-4.069c-.581-.291-1.356 0-1.744.581-.291.678-.097 1.453.581 1.744l8.041 4.069c.678.291 1.453.097 1.744-.581z" fill="#fff"/><path d="M186.484 163.622c.484-.678 1.259-.872 1.938-.387l16.856 11.238c.678.387.775 1.259.388 1.938-.484.678-1.259.872-1.938.387l-16.856-11.238c-.678-.484-.872-1.356-.387-1.938z" fill="#F3F3F3"/><path d="M186.387 163.525c.484-.678 1.453-.872 2.131-.484l16.856 11.237c.678.484.872 1.356.387 2.131-.484.678-1.453.872-2.131.484l-16.856-11.238c-.775-.484-.872-1.453-.388-2.131zm19.084 12.787c.387-.581.291-1.453-.291-1.841l-16.856-11.238c-.581-.387-1.356-.194-1.744.387-.388.581-.291 1.453.291 1.841l16.856 11.237c.581.388 1.356.194 1.744-.387z" fill="#fff"/><path d="M190.069 177.669c.484-.581 1.356-.775 1.938-.291l7.072 5.522c.581.484.678 1.356.194 1.938-.484.581-1.356.775-1.938.291l-7.072-5.522c-.581-.484-.678-1.356-.194-1.938z" fill="#F3F3F3"/><path d="M189.972 177.572c.484-.678 1.453-.775 2.131-.291l7.072 5.522c.678.484.775 1.453.291 2.131-.484.678-1.453.775-2.131.291l-7.072-5.522c-.678-.484-.775-1.453-.291-2.131zm9.3 7.266c.484-.581.388-1.356-.194-1.841l-7.072-5.522c-.581-.387-1.356-.291-1.841.291-.484.581-.388 1.356.194 1.841l7.072 5.522c.581.387 1.356.291 1.841-.291z" fill="#fff"/><path d="M175.634 176.7c.581-.581 1.453-.581 1.938 0l14.338 14.241c.581.581.484 1.453 0 1.938-.581.581-1.453.581-1.938 0l-14.338-14.241c-.484-.484-.484-1.453 0-1.938z" fill="#F3F3F3"/><path d="M175.634 176.603c.581-.581 1.55-.581 2.131 0l14.338 14.241c.581.581.581 1.55 0 2.131-.581.581-1.55.581-2.131 0l-14.338-14.241c-.678-.581-.678-1.55 0-2.131zm16.275 16.178c.484-.484.484-1.356 0-1.841l-14.338-14.241c-.484-.484-1.356-.484-1.841 0-.484.484-.484 1.356 0 1.841l14.338 14.241c.484.581 1.259.581 1.841 0z" fill="#fff"/><path d="M176.506 191.134c.581-.484 1.453-.484 1.938.097l5.909 6.781c.484.581.387 1.453-.194 1.938-.581.484-1.453.484-1.938-.097l-5.909-6.781c-.484-.484-.387-1.356.194-1.938z" fill="#F3F3F3"/><path d="M176.409 191.134c.678-.581 1.55-.484 2.131.097l5.909 6.781c.581.581.484 1.55-.194 2.131-.678.581-1.55.484-2.131-.097l-5.909-6.781c-.484-.678-.484-1.647.194-2.131zm7.75 8.816c.581-.484.581-1.259.194-1.841l-5.909-6.781c-.484-.484-1.259-.581-1.841-.097-.581.484-.581 1.259-.194 1.841l5.909 6.781c.484.581 1.259.581 1.841.097z" fill="#fff"/><path d="M162.556 187.453c.678-.484 1.55-.291 1.938.387l11.237 16.759c.388.678.194 1.55-.387 1.938-.678.484-1.55.291-1.938-.387l-11.238-16.759c-.387-.678-.194-1.55.388-1.938z" fill="#F3F3F3"/><path d="M162.556 187.356c.678-.484 1.647-.291 2.131.388l11.238 16.759c.484.678.291 1.647-.484 2.131-.678.484-1.647.291-2.131-.388l-11.237-16.759c-.484-.775-.291-1.647.484-2.131zm12.787 19.084c.581-.388.775-1.163.387-1.744l-11.237-16.759c-.388-.581-1.162-.678-1.841-.291-.581.388-.775 1.162-.387 1.744l11.238 16.759c.387.484 1.259.678 1.841.291z" fill="#fff"/><path d="M160.522 201.791c.678-.388 1.55-.194 1.938.484l4.456 7.847c.387.678.097 1.55-.581 1.938-.678.388-1.55.194-1.938-.484l-4.456-7.847c-.291-.678-.097-1.55.581-1.938z" fill="#F3F3F3"/><path d="M160.522 201.694c.775-.387 1.647-.194 2.034.484l4.456 7.847c.388.678.194 1.647-.581 2.034-.775.388-1.647.194-2.034-.484l-4.456-7.847c-.388-.678-.194-1.55.581-2.034zm5.813 10.269c.581-.388.872-1.162.484-1.744l-4.456-7.847c-.388-.581-1.163-.775-1.744-.484-.581.388-.872 1.163-.484 1.744l4.456 7.847c.291.581 1.163.872 1.744.484z" fill="#fff"/><path d="M147.637 195.397c.775-.291 1.55 0 1.841.678l7.847 18.697c.291.678-.097 1.55-.775 1.841-.678.291-1.55 0-1.841-.678l-7.847-18.697c-.291-.678.097-1.55.775-1.841z" fill="#F3F3F3"/><path d="M147.637 195.3c.775-.291 1.647 0 2.034.775l7.847 18.697c.291.775-.097 1.647-.872 1.938-.775.291-1.647 0-2.034-.775l-7.847-18.697c-.291-.678.097-1.55.872-1.938zm8.816 21.216c.678-.291.969-1.066.678-1.647l-7.847-18.697c-.291-.678-1.066-.969-1.744-.678-.678.291-.969 1.066-.678 1.647l7.847 18.697c.388.678 1.066.969 1.744.678z" fill="#fff"/><path d="M142.891 209.153c.775-.291 1.55.097 1.841.872l2.809 8.525c.291.678-.194 1.55-.872 1.744-.775.291-1.55-.097-1.841-.872l-2.809-8.525c-.291-.678.097-1.453.872-1.744z" fill="#F3F3F3"/><path d="M142.794 209.056c.775-.291 1.647.097 1.938.872l2.809 8.525c.291.775-.194 1.647-.969 1.938-.775.291-1.647-.097-1.938-.872l-2.809-8.525c-.194-.775.194-1.647.969-1.938zm3.778 11.141c.678-.194 1.066-.969.872-1.647l-2.809-8.525c-.194-.678-.969-.969-1.647-.775-.678.194-1.066.969-.872 1.647l2.809 8.525c.194.678.969 1.066 1.647.775z" fill="#fff"/><path d="M131.459 200.338c.775-.194 1.55.291 1.647 1.066l4.069 19.859c.194.775-.388 1.453-1.163 1.647-.775.194-1.55-.291-1.647-1.066l-4.069-19.859c-.097-.678.387-1.453 1.162-1.647z" fill="#F3F3F3"/><path d="M131.459 200.241c.872-.194 1.647.388 1.841 1.162l4.069 19.859c.194.775-.388 1.647-1.162 1.744-.872.194-1.647-.387-1.841-1.162l-4.069-19.859c-.194-.775.291-1.55 1.162-1.744zm4.553 22.572c.678-.097 1.163-.775 1.066-1.55l-4.069-19.859c-.097-.678-.872-1.162-1.55-.969-.678.097-1.162.775-1.066 1.55l4.069 19.859c.194.678.872 1.066 1.55.969z" fill="#fff"/><path d="M124.097 212.931c.775-.097 1.453.387 1.647 1.162l1.162 8.912c.097.775-.484 1.453-1.259 1.55-.775.097-1.453-.388-1.647-1.162l-1.162-8.913c-.097-.775.484-1.453 1.259-1.55z" fill="#F3F3F3"/><path d="M124.097 212.834c.872-.097 1.647.484 1.744 1.259l1.162 8.912c.097.775-.484 1.55-1.356 1.647-.872.097-1.647-.484-1.744-1.259l-1.163-8.913c-.097-.775.484-1.55 1.356-1.647zm1.453 11.625c.678-.097 1.259-.775 1.163-1.453l-1.163-8.912c-.097-.678-.775-1.162-1.453-1.066-.678.097-1.259.775-1.162 1.453l1.162 8.913c.097.678.775 1.162 1.453 1.066z" fill="#fff"/><path d="M114.119 202.081c.775 0 1.453.581 1.453 1.356v20.247c0 .775-.678 1.356-1.453 1.356s-1.453-.581-1.453-1.356v-20.247c.097-.775.678-1.356 1.453-1.356z" fill="#F3F3F3"/><path d="M114.119 201.984c.872 0 1.55.678 1.55 1.453v20.247c0 .775-.678 1.453-1.55 1.453s-1.55-.678-1.55-1.453v-20.247c0-.775.775-1.453 1.55-1.453zm0 22.959c.678 0 1.356-.581 1.356-1.259v-20.247c0-.678-.581-1.259-1.356-1.259-.678 0-1.356.581-1.356 1.259v20.247c.097.678.678 1.259 1.356 1.259z" fill="#fff"/><path d="M104.431 212.931c.775.097 1.356.678 1.356 1.453l-.678 9.009c-.097.775-.775 1.356-1.55 1.259-.775-.097-1.356-.678-1.356-1.453l.678-9.009c.097-.775.775-1.356 1.55-1.259z" fill="#F3F3F3"/><path d="M104.431 212.834c.872.097 1.453.775 1.453 1.55l-.678 9.009c-.097.775-.775 1.453-1.647 1.356-.872-.097-1.453-.775-1.453-1.55l.678-9.009c.097-.872.775-1.453 1.647-1.356zm-.872 11.722c.678 0 1.356-.484 1.356-1.162l.678-9.009c0-.678-.484-1.259-1.259-1.356-.678 0-1.356.484-1.356 1.163l-.678 9.009c0 .678.581 1.259 1.259 1.356z" fill="#fff"/><path d="M97.166 200.338c.775.194 1.259.872 1.162 1.647l-3.972 19.859c-.194.775-.872 1.259-1.647 1.066-.775-.194-1.259-.872-1.162-1.647l3.972-19.859c.097-.678.872-1.162 1.647-1.066z" fill="#F3F3F3"/><path d="M97.166 200.241c.872.194 1.356.969 1.259 1.744l-3.972 19.859c-.194.775-.969 1.356-1.841 1.162-.872-.194-1.356-.969-1.259-1.744l3.972-19.859c.194-.775.969-1.259 1.841-1.162zm-4.553 22.572c.678.097 1.356-.291 1.55-.969l3.972-19.859c.097-.678-.291-1.356-1.066-1.55-.678-.097-1.356.291-1.55.969l-3.972 19.859c-.097.775.388 1.356 1.066 1.55z" fill="#fff"/><path d="M85.541 209.056c.775.194 1.259.969 1.066 1.744l-2.422 8.719c-.194.775-.969 1.162-1.744.969-.775-.194-1.259-.969-1.066-1.744l2.422-8.719c.194-.775.969-1.162 1.744-.969z" fill="#F3F3F3"/><path d="M85.541 208.959c.775.194 1.356 1.066 1.066 1.841l-2.422 8.719c-.194.775-1.066 1.259-1.841 1.066-.775-.194-1.356-1.066-1.066-1.841l2.422-8.719c.194-.775.969-1.259 1.841-1.066zm-3.197 11.334c.678.194 1.453-.194 1.647-.872l2.422-8.719c.194-.678-.194-1.356-.969-1.55-.678-.194-1.453.194-1.647.872l-2.422 8.719c-.097.678.291 1.356.969 1.55z" fill="#fff"/><path d="M80.794 195.397c.775.291 1.066 1.162.775 1.841l-7.75 18.697c-.291.678-1.162 1.066-1.841.678-.678-.388-1.066-1.163-.775-1.841l7.75-18.697c.291-.678 1.162-1.066 1.841-.678z" fill="#F3F3F3"/><path d="M80.794 195.3c.775.291 1.162 1.162.872 1.938l-7.75 18.697c-.291.775-1.163 1.066-2.034.775-.775-.291-1.162-1.162-.872-1.938l7.75-18.697c.387-.775 1.259-1.162 2.034-.775zm-8.816 21.216c.678.291 1.453 0 1.744-.678l7.75-18.697c.291-.678-.097-1.356-.775-1.647-.678-.291-1.453 0-1.744.678l-7.75 18.697c-.194.581.097 1.356.775 1.647z" fill="#fff"/><path d="M67.716 201.597c.678.387.969 1.162.678 1.841l-4.069 8.041c-.388.678-1.163.969-1.938.581-.678-.387-.969-1.162-.678-1.841l4.069-8.041c.388-.678 1.162-.969 1.938-.581z" fill="#F3F3F3"/><path d="M67.716 201.5c.775.387 1.066 1.259.678 2.034l-4.069 8.041c-.388.775-1.259 1.066-2.034.678-.775-.388-1.066-1.259-.678-2.034l4.069-8.041c.387-.775 1.259-1.066 2.034-.678zm-5.328 10.559c.678.291 1.453.097 1.744-.581l4.069-8.041c.291-.581 0-1.356-.581-1.744-.678-.291-1.453-.097-1.744.581l-4.069 8.041c-.291.581 0 1.356.581 1.744z" fill="#fff"/><path d="M65.778 187.259c.678.484.872 1.356.388 1.938l-11.238 16.759c-.388.678-1.259.775-1.938.387-.678-.484-.872-1.356-.388-1.938l11.238-16.759c.388-.678 1.259-.872 1.938-.387z" fill="#F3F3F3"/><path d="M65.778 187.162c.678.484.872 1.453.484 2.131l-11.238 16.759c-.484.678-1.356.872-2.131.388-.678-.484-.872-1.453-.484-2.131l11.238-16.759c.484-.678 1.453-.872 2.131-.388zm-12.788 19.084c.581.388 1.453.291 1.841-.291l11.237-16.759c.388-.581.194-1.356-.387-1.744-.581-.387-1.453-.291-1.841.291l-11.238 16.662c-.387.581-.194 1.453.388 1.841z" fill="#fff"/><path d="M51.634 190.844c.581.484.775 1.356.291 1.938l-5.619 7.072c-.484.581-1.356.678-1.938.194-.581-.484-.775-1.356-.291-1.938l5.619-7.072c.484-.581 1.356-.678 1.938-.194z" fill="#F3F3F3"/><path d="M51.731 190.747c.678.484.775 1.453.291 2.131l-5.619 7.072c-.484.678-1.453.775-2.131.194-.678-.484-.775-1.453-.291-2.131l5.619-7.072c.484-.678 1.453-.775 2.131-.194zm-7.266 9.203c.581.484 1.356.388 1.841-.194l5.619-7.072c.388-.581.291-1.356-.291-1.841-.581-.484-1.356-.387-1.841.194l-5.619 7.072c-.387.581-.291 1.453.291 1.841z" fill="#fff"/><path d="M52.603 176.313c.581.581.581 1.453 0 1.938l-14.337 14.241c-.581.581-1.453.484-1.938 0-.484-.484-.581-1.453 0-1.938l14.241-14.241c.581-.581 1.453-.581 2.034 0z" fill="#F3F3F3"/><path d="M52.7 176.216c.581.581.581 1.55 0 2.131l-14.338 14.241c-.581.581-1.55.581-2.131 0-.581-.581-.581-1.55 0-2.131l14.337-14.241c.581-.581 1.55-.581 2.131 0zm-16.372 16.275c.484.484 1.356.484 1.841 0l14.337-14.241c.484-.484.484-1.356 0-1.841-.484-.484-1.356-.484-1.841 0l-14.337 14.241c-.484.484-.484 1.259 0 1.841z" fill="#fff"/><path d="M38.072 177.088c.484.581.484 1.453-.097 1.938l-6.878 5.813c-.581.484-1.453.387-1.938-.194-.484-.581-.484-1.453.097-1.938l6.878-5.813c.581-.484 1.453-.388 1.938.194z" fill="#F3F3F3"/><path d="M38.169 176.991c.581.678.484 1.647-.097 2.131l-6.878 5.813c-.581.581-1.55.484-2.131-.194-.581-.678-.484-1.647.097-2.131l6.878-5.813c.581-.581 1.55-.484 2.131.194zm-8.913 7.653c.484.581 1.259.581 1.841.194l6.878-5.813c.484-.484.581-1.259.097-1.841-.484-.581-1.259-.581-1.841-.194l-6.878 5.813c-.581.484-.581 1.259-.097 1.841z" fill="#fff"/><path d="M41.947 163.137c.484.678.291 1.55-.387 1.938l-16.856 11.238c-.678.387-1.55.194-1.938-.387-.484-.678-.291-1.55.387-1.938l16.856-11.238c.581-.387 1.453-.194 1.938.387z" fill="#F3F3F3"/><path d="M42.044 163.137c.484.678.291 1.647-.388 2.131l-16.856 11.237c-.678.484-1.647.291-2.131-.484-.484-.678-.291-1.647.387-2.131l16.856-11.238c.678-.484 1.647-.291 2.131.484zm-19.181 12.691c.387.581 1.162.775 1.744.387l16.856-11.237c.581-.388.775-1.162.291-1.841-.387-.581-1.162-.775-1.744-.387l-16.856 11.238c-.581.484-.678 1.259-.291 1.841z" fill="#fff"/><path d="M27.512 161.103c.387.678.194 1.55-.484 1.938l-7.847 4.456c-.678.388-1.55.097-1.938-.581-.387-.678-.194-1.55.484-1.938l7.847-4.456c.678-.387 1.55-.097 1.938.581z" fill="#F3F3F3"/><path d="M27.609 161.006c.387.775.194 1.647-.484 2.034l-7.847 4.456c-.678.388-1.647.097-2.034-.581-.387-.775-.194-1.647.484-2.034l7.847-4.456c.678-.388 1.647-.097 2.034.581zm-10.269 5.813c.387.678 1.163.872 1.744.484l7.847-4.456c.581-.388.775-1.163.484-1.744-.387-.678-1.162-.872-1.744-.484l-7.847 4.456c-.581.291-.775 1.066-.484 1.744z" fill="#fff"/><path d="M34.003 148.219c.291.775 0 1.55-.775 1.841l-18.697 7.75c-.678.291-1.55-.097-1.841-.775-.291-.775 0-1.55.775-1.841l18.697-7.75c.678-.291 1.55 0 1.841.775z" fill="#F3F3F3"/><path d="M34.1 148.122c.291.775 0 1.647-.775 2.034l-18.697 7.75c-.775.291-1.647-.097-1.938-.872-.291-.775 0-1.647.775-2.034l18.697-7.75c.775-.291 1.647.097 1.938.872zm-21.216 8.816c.291.678 1.066.969 1.647.775l18.697-7.75c.678-.291.969-1.066.678-1.744-.291-.678-1.066-.969-1.647-.775l-18.697 7.75c-.678.291-.969 1.066-.678 1.744z" fill="#fff"/><path d="M20.344 143.375c.291.775-.097 1.55-.872 1.841l-8.525 2.809c-.678.291-1.55-.194-1.744-.872-.291-.775.097-1.55.872-1.841l8.525-2.809c.678-.291 1.453.097 1.744.872z" fill="#F3F3F3"/><path d="M20.441 143.278c.291.775-.097 1.647-.969 1.938l-8.525 2.809c-.775.291-1.647-.194-1.938-.969-.291-.775.097-1.647.969-1.938l8.525-2.809c.775-.194 1.647.194 1.938.969zm-11.238 3.681c.194.678.969 1.066 1.647.872l8.525-2.809c.678-.194.969-.969.775-1.647-.194-.678-.969-1.066-1.647-.872l-8.525 2.809c-.678.291-.969.969-.775 1.647z" fill="#fff"/><path d="M29.063 131.847c.194.775-.291 1.55-1.066 1.647l-19.859 3.875c-.775.194-1.453-.388-1.647-1.162-.194-.775.291-1.55 1.066-1.647l19.859-3.875c.775-.097 1.55.388 1.647 1.163z" fill="#F3F3F3"/><path d="M29.256 131.847c.194.872-.388 1.647-1.163 1.841l-19.859 3.875c-.775.194-1.55-.387-1.744-1.259-.194-.872.388-1.647 1.163-1.841l19.859-3.875c.775-.194 1.55.387 1.744 1.259zm-22.572 4.359c.097.678.775 1.162 1.453 1.066l19.859-3.875c.678-.097 1.163-.872.969-1.55-.097-.678-.775-1.163-1.453-1.066l-19.859 3.875c-.678.194-1.162.872-.969 1.55z" fill="#fff"/><path d="M16.663 124.388c.097.775-.388 1.453-1.163 1.55l-8.912 1.066c-.775.097-1.453-.484-1.55-1.259-.097-.775.388-1.453 1.163-1.55l8.913-1.066c.678-.097 1.453.484 1.55 1.259z" fill="#F3F3F3"/><path d="M16.759 124.388c.097.872-.484 1.647-1.259 1.744l-8.912 1.066c-.775.097-1.55-.484-1.647-1.356-.097-.872.484-1.647 1.259-1.744l8.913-1.066c.775-.097 1.55.484 1.647 1.356zm-11.722 1.356c.097.678.775 1.259 1.453 1.162l8.912-1.066c.678-.097 1.163-.775 1.066-1.453-.097-.678-.775-1.259-1.453-1.163l-8.912 1.066c-.678.097-1.163.775-1.066 1.453z" fill="#fff"/><path d="M27.512 114.991c0 .775-.581 1.453-1.356 1.453h-20.247c-.775 0-1.356-.678-1.356-1.453s.581-1.453 1.356-1.453h20.247c.775 0 1.356.678 1.356 1.453z" fill="#F3F3F3"/><path d="M27.609 114.991c0 .872-.678 1.55-1.453 1.55h-20.247c-.775 0-1.453-.678-1.453-1.55s.678-1.55 1.453-1.55h20.247c.775 0 1.453.678 1.453 1.55zm-22.959-.097c0 .678.581 1.356 1.259 1.356h20.247c.678 0 1.259-.581 1.259-1.356 0-.678-.581-1.356-1.259-1.356h-20.247c-.678.097-1.259.678-1.259 1.356z" fill="#fff"/><path d="M16.759 105.206c-.097.775-.678 1.356-1.453 1.356l-9.009-.678c-.775-.097-1.356-.775-1.259-1.55.097-.775.678-1.356 1.453-1.356l9.009.678c.678.097 1.259.775 1.259 1.55z" fill="#E2E2E2"/><path d="M16.856 105.206c-.097.872-.775 1.453-1.55 1.453l-9.009-.678c-.775-.097-1.453-.775-1.356-1.647.097-.872.775-1.453 1.55-1.453l9.009.678c.775.097 1.356.872 1.356 1.647zm-11.819-.872c-.097.678.484 1.356 1.163 1.356l9.009.678c.678 0 1.259-.484 1.356-1.259.097-.678-.484-1.356-1.163-1.356l-9.009-.678c-.678 0-1.259.581-1.356 1.259z" fill="#fff"/><path d="M29.256 98.134c-.194.775-.872 1.259-1.647 1.162l-19.859-4.069c-.775-.194-1.259-.872-1.066-1.647.194-.775.872-1.259 1.647-1.162l19.859 3.972c.678.194 1.162.969 1.066 1.744z" fill="#F3F3F3"/><path d="M29.353 98.134c-.194.872-.969 1.356-1.744 1.259l-19.859-3.972c-.775-.194-1.356-.969-1.162-1.841.194-.872.969-1.356 1.744-1.259l19.859 3.972c.775.194 1.259.969 1.162 1.841zm-22.572-4.553c-.097.678.291 1.356.969 1.55l19.859 3.972c.678.097 1.356-.291 1.55-1.066.097-.678-.291-1.356-.969-1.55l-19.859-3.972c-.775-.097-1.356.388-1.55 1.066z" fill="#fff"/><path d="M20.538 86.509c-.194.775-.969 1.259-1.744 1.066l-8.719-2.422c-.775-.194-1.162-.969-.969-1.744.194-.775.969-1.259 1.744-1.066l8.719 2.422c.775.194 1.162.969.969 1.744z" fill="#F3F3F3"/><path d="M20.634 86.509c-.194.775-1.066 1.356-1.841 1.066l-8.719-2.422c-.775-.194-1.259-1.066-1.066-1.841.194-.775 1.066-1.356 1.841-1.066l8.719 2.422c.775.194 1.259.969 1.066 1.841zm-11.334-3.197c-.194.678.194 1.453.872 1.647l8.719 2.422c.678.194 1.356-.194 1.55-.969.194-.678-.194-1.453-.872-1.647l-8.719-2.422c-.678-.097-1.356.291-1.55.969z" fill="#fff"/><path d="M34.197 81.859c-.291.775-1.163 1.066-1.841.775l-18.697-7.75c-.678-.291-1.066-1.163-.775-1.841.291-.775 1.162-1.066 1.841-.775l18.697 7.75c.775.291 1.066 1.163.775 1.841z" fill="#F3F3F3"/><path d="M34.294 81.956c-.291.775-1.163 1.163-1.938.872l-18.697-7.75c-.775-.291-1.066-1.162-.775-2.034.291-.775 1.162-1.163 1.938-.872l18.697 7.75c.775.388 1.066 1.259.775 2.034zm-21.216-8.816c-.291.678 0 1.453.678 1.744l18.697 7.75c.678.291 1.356-.097 1.647-.775.291-.678 0-1.453-.678-1.744l-18.697-7.75c-.678-.194-1.453.097-1.647.775z" fill="#fff"/><path d="M27.9 68.781c-.387.678-1.162.969-1.841.678l-8.041-4.069c-.678-.291-.969-1.162-.581-1.938.387-.678 1.163-.969 1.841-.678l8.041 4.069c.678.388.969 1.259.581 1.938z" fill="#F3F3F3"/><path d="M27.997 68.878c-.387.775-1.259 1.066-2.034.678l-8.041-4.069c-.775-.388-1.066-1.259-.678-2.034.388-.775 1.259-1.066 2.034-.678l8.041 4.069c.775.291 1.066 1.259.678 2.034zm-10.462-5.328c-.291.678-.097 1.453.581 1.744l8.041 4.069c.581.291 1.356 0 1.744-.581.291-.678.097-1.453-.581-1.744l-8.138-4.069c-.581-.291-1.356-.097-1.647.581z" fill="#fff"/><path d="M42.141 66.941c-.484.678-1.259.872-1.938.388l-16.759-11.141c-.678-.388-.775-1.259-.388-1.938.388-.678 1.259-.872 1.938-.388l16.856 11.237c.581.388.775 1.259.291 1.841z" fill="#F3F3F3"/><path d="M42.237 67.037c-.484.678-1.453.872-2.131.484l-16.759-11.237c-.678-.484-.872-1.356-.387-2.131.484-.678 1.453-.872 2.131-.484l16.759 11.237c.775.484.872 1.453.387 2.131zm-19.084-12.787c-.387.581-.291 1.453.291 1.841l16.856 11.237c.581.388 1.356.194 1.744-.388.387-.581.291-1.453-.291-1.841l-16.856-11.237c-.581-.387-1.356-.194-1.744.388z" fill="#fff"/><path d="M38.556 52.894c-.484.581-1.356.775-1.938.291l-7.072-5.522c-.581-.484-.678-1.356-.194-1.938.484-.581 1.356-.775 1.938-.291l7.072 5.522c.581.484.678 1.356.194 1.938z" fill="#F3F3F3"/><path d="M38.653 52.991c-.484.678-1.453.775-2.131.291l-7.072-5.522c-.678-.484-.775-1.453-.291-2.131.484-.678 1.453-.775 2.131-.291l7.072 5.522c.678.484.775 1.453.291 2.131zm-9.3-7.266c-.484.581-.387 1.356.194 1.841l7.072 5.522c.581.388 1.356.291 1.841-.291.484-.581.387-1.356-.194-1.841l-7.072-5.522c-.581-.388-1.356-.291-1.841.291z" fill="#fff"/><path d="M52.991 53.862c-.581.581-1.453.581-1.938 0l-14.434-14.241c-.581-.581-.484-1.453 0-1.938.581-.581 1.453-.581 1.938 0l14.337 14.241c.581.484.581 1.453.097 1.938z" fill="#F3F3F3"/><path d="M52.991 53.959c-.581.581-1.55.581-2.131 0l-14.337-14.241c-.581-.581-.581-1.55 0-2.131.581-.581 1.55-.581 2.131 0l14.337 14.241c.678.581.678 1.55 0 2.131zm-16.275-16.178c-.484.484-.484 1.356 0 1.841l14.337 14.241c.484.484 1.356.484 1.841 0 .484-.484.484-1.356 0-1.841l-14.337-14.337c-.484-.484-1.259-.484-1.841.097z" fill="#fff"/><path d="M52.119 39.428c-.581.484-1.453.484-1.938-.097l-5.909-6.781c-.484-.581-.388-1.453.194-1.937.581-.484 1.453-.484 1.938.097l5.909 6.781c.484.484.388 1.356-.194 1.938z" fill="#F3F3F3"/><path d="M52.216 39.428c-.678.581-1.55.484-2.131-.097l-5.909-6.781c-.581-.581-.484-1.55.194-2.131.678-.581 1.55-.484 2.131.097l5.909 6.781c.484.678.484 1.647-.194 2.131zm-7.75-8.816c-.581.484-.581 1.259-.194 1.841l5.909 6.781c.484.484 1.259.581 1.841.097.581-.484.581-1.259.194-1.841l-5.909-6.781c-.484-.581-1.259-.581-1.841-.097z" fill="#fff"/><path d="M66.069 43.109c-.678.484-1.55.291-1.938-.388l-11.334-16.759c-.388-.678-.194-1.55.388-1.938.678-.484 1.55-.291 1.938.388l11.237 16.759c.484.678.291 1.55-.291 1.938z" fill="#F3F3F3"/><path d="M66.069 43.206c-.678.484-1.647.291-2.131-.387l-11.237-16.759c-.484-.678-.291-1.647.484-2.131.678-.484 1.647-.291 2.131.387l11.237 16.759c.484.775.291 1.647-.484 2.131zm-12.787-19.084c-.581.387-.775 1.163-.388 1.744l11.237 16.759c.388.581 1.163.678 1.841.291.581-.387.775-1.163.388-1.744l-11.237-16.663c-.388-.581-1.259-.775-1.841-.387z" fill="#fff"/><path d="M68.103 28.772c-.678.387-1.55.194-1.938-.484l-4.456-7.847c-.388-.678-.097-1.55.581-1.938.678-.387 1.55-.194 1.938.484l4.456 7.847c.291.678.097 1.55-.581 1.938z" fill="#F3F3F3"/><path d="M68.103 28.869c-.775.388-1.647.194-2.034-.484l-4.456-7.847c-.387-.678-.194-1.647.581-2.034.775-.387 1.647-.194 2.034.484l4.456 7.847c.388.678.194 1.55-.581 2.034zm-5.813-10.269c-.581.387-.872 1.162-.484 1.744l4.456 7.847c.388.581 1.162.775 1.744.484.581-.387.872-1.163.484-1.744l-4.456-7.847c-.291-.581-1.162-.872-1.744-.484z" fill="#fff"/><path d="M80.987 35.166c-.775.291-1.55 0-1.841-.678l-7.847-18.697c-.291-.678.097-1.55.775-1.841.775-.291 1.55 0 1.841.678l7.847 18.697c.291.678-.097 1.55-.775 1.841z" fill="#F3F3F3"/><path d="M80.987 35.263c-.775.291-1.647 0-2.034-.775l-7.847-18.697c-.291-.775.097-1.647.872-1.937.775-.291 1.647 0 2.034.775l7.847 18.697c.291.678-.097 1.55-.872 1.938zm-8.816-21.216c-.678.291-.969 1.066-.678 1.647l7.847 18.697c.291.678 1.066.969 1.744.678.678-.291.969-1.066.678-1.647l-7.847-18.697c-.388-.678-1.066-.969-1.744-.678z" fill="#fff"/><path d="M85.734 21.409c-.775.291-1.55-.097-1.841-.872l-2.809-8.525c-.291-.678.194-1.55.872-1.744.678-.194 1.55.097 1.841.872l2.809 8.525c.291.678-.097 1.453-.872 1.744z" fill="#F3F3F3"/><path d="M85.831 21.506c-.775.291-1.647-.097-1.938-.872l-2.809-8.525c-.291-.775.194-1.647.969-1.938.775-.291 1.647.097 1.938.872l2.809 8.525c.194.775-.194 1.647-.969 1.938zm-3.778-11.141c-.678.194-1.066.969-.872 1.647l2.809 8.525c.194.678.969.969 1.647.775.678-.194 1.066-.969.872-1.647l-2.809-8.525c-.194-.678-.969-1.066-1.647-.775z" fill="#fff"/><path d="M97.166 30.225c-.775.194-1.55-.291-1.647-1.066l-4.069-19.859c-.194-.775.388-1.453 1.162-1.647.775-.194 1.55.291 1.647 1.066l4.069 19.859c.097.678-.388 1.453-1.162 1.647z" fill="#F3F3F3"/><path d="M97.166 30.322c-.872.194-1.647-.387-1.841-1.162l-4.069-19.859c-.194-.775.388-1.647 1.163-1.744.872-.194 1.647.387 1.841 1.162l4.069 19.859c.194.775-.291 1.55-1.162 1.744zm-4.553-22.572c-.678.097-1.162.775-1.066 1.55l4.069 19.859c.097.678.872 1.162 1.55.969.678-.097 1.162-.775 1.066-1.55l-4.069-19.859c-.194-.678-.872-1.066-1.55-.969z" fill="#fff"/><path d="M104.528 17.631c-.775.097-1.453-.388-1.647-1.163l-1.162-8.912c-.097-.775.484-1.453 1.259-1.55.775-.097 1.453.388 1.647 1.163l1.162 8.913c.097.775-.484 1.453-1.259 1.55z" fill="#F3F3F3"/><path d="M104.528 17.728c-.872.097-1.647-.484-1.744-1.259l-1.162-8.912c-.097-.775.484-1.55 1.356-1.647.872-.097 1.647.484 1.744 1.259l1.163 8.913c.097.775-.484 1.55-1.356 1.647zm-1.453-11.625c-.678.097-1.259.775-1.163 1.453l1.163 8.912c.097.678.775 1.163 1.453 1.066.678-.097 1.259-.775 1.162-1.453l-1.162-8.913c-.097-.678-.775-1.162-1.453-1.066z" fill="#fff"/><circle fill-opacity=".2" fill="url(#d)" cx="114.991" cy="115.184" r="114.7"/></g><path d="M204.116 51.15l-92.516 59.288h-.097v.097l-.097.097-57.737 95.228 84.862-68.297.097-.097v-.097l65.487-86.219z" fill-opacity=".05" filter="url(#e)"/><path d="M202.372 45.628l-91.45 65.003 27.125 26.931 64.325-91.934" fill="#CD151E"/><path d="M111.019 110.438l13.659 13.466 77.694-78.275-91.353 64.809z" fill="#FA5153"/><path d="M111.019 110.438l27.125 26.931-91.45 65.003 64.325-91.934z" fill="#ACACAC"/><path d="M46.694 202.372l77.984-78.469-13.659-13.466-64.325 91.934z" fill="#eee"/></g></svg>
